<svg width="20" height="20" viewBox="0 0 20 20" fill="none" xmlns="http://www.w3.org/2000/svg">
<path d="M9.99984 13.3334H10.0073" stroke="#534FEB" stroke-linecap="round" stroke-linejoin="round"/>
<path d="M10 10.8334L10 6.66671" stroke="#534FEB" stroke-linecap="round" stroke-linejoin="round"/>
<path d="M13.5903 3.6533C13.0977 3.6533 12.8515 3.6533 12.6271 3.57006C12.596 3.5585 12.5653 3.54578 12.535 3.53192C12.3175 3.43214 12.1434 3.25801 11.7951 2.90974C10.9936 2.10816 10.5928 1.70737 10.0996 1.67041C10.0333 1.66544 9.96673 1.66544 9.90042 1.67041C9.40727 1.70737 9.00648 2.10816 8.2049 2.90974C7.85663 3.25801 7.6825 3.43214 7.46499 3.53192C7.43479 3.54578 7.40407 3.5585 7.37291 3.57006C7.14856 3.6533 6.9023 3.6533 6.40977 3.6533H6.31893C5.06234 3.6533 4.43405 3.65331 4.04368 4.04368C3.65331 4.43405 3.6533 5.06234 3.6533 6.31893V6.40977C3.6533 6.9023 3.6533 7.14856 3.57006 7.37291C3.5585 7.40407 3.54578 7.43479 3.53192 7.46499C3.43214 7.6825 3.25801 7.85663 2.90974 8.2049C2.10816 9.00648 1.70737 9.40727 1.67041 9.90042C1.66544 9.96673 1.66544 10.0333 1.67041 10.0996C1.70737 10.5928 2.10816 10.9936 2.90974 11.7951C3.25801 12.1434 3.43214 12.3175 3.53192 12.535C3.54578 12.5653 3.5585 12.596 3.57006 12.6271C3.6533 12.8515 3.6533 13.0977 3.6533 13.5903V13.6811C3.6533 14.9377 3.65331 15.566 4.04368 15.9564C4.43405 16.3467 5.06234 16.3467 6.31893 16.3467H6.40977C6.9023 16.3467 7.14856 16.3467 7.37291 16.43C7.40407 16.4415 7.43479 16.4543 7.46499 16.4681C7.6825 16.5679 7.85663 16.742 8.2049 17.0903C9.00648 17.8919 9.40727 18.2927 9.90042 18.3296C9.96673 18.3346 10.0333 18.3346 10.0996 18.3296C10.5928 18.2927 10.9936 17.8919 11.7951 17.0903C12.1434 16.742 12.3175 16.5679 12.535 16.4681C12.5653 16.4543 12.596 16.4415 12.6271 16.43C12.8515 16.3467 13.0977 16.3467 13.5903 16.3467H13.6811C14.9377 16.3467 15.566 16.3467 15.9564 15.9564C16.3467 15.566 16.3467 14.9377 16.3467 13.6811V13.5903C16.3467 13.0977 16.3467 12.8515 16.43 12.6271C16.4415 12.596 16.4543 12.5653 16.4681 12.535C16.5679 12.3175 16.742 12.1434 17.0903 11.7951C17.8919 10.9936 18.2927 10.5928 18.3296 10.0996C18.3346 10.0333 18.3346 9.96673 18.3296 9.90042C18.2927 9.40727 17.8919 9.00648 17.0903 8.2049C16.742 7.85663 16.5679 7.6825 16.4681 7.46499C16.4543 7.43479 16.4415 7.40407 16.43 7.37291C16.3467 7.14856 16.3467 6.9023 16.3467 6.40977V6.31893C16.3467 5.06234 16.3467 4.43405 15.9564 4.04368C15.566 3.65331 14.9377 3.6533 13.6811 3.6533H13.5903Z" stroke="#534FEB"/>
</svg>
