<svg width="20" height="20" viewBox="0 0 20 20" fill="none" xmlns="http://www.w3.org/2000/svg">
<path d="M1.66663 13.1251C1.66663 13.1251 3.16274 12.5 5.83329 12.5C9.99996 12.5 13.3333 15 18.3333 15" stroke="#534FEB" stroke-linecap="round" stroke-linejoin="round"/>
<path d="M1.66663 17.5H18.3333" stroke="#534FEB" stroke-linecap="round" stroke-linejoin="round"/>
<path d="M10.495 2.68968C8.12361 3.36973 6.58222 5.7102 6.67021 8.2292C6.68848 8.75239 6.69762 9.01398 6.92118 9.12968C7.14474 9.24537 7.37678 9.0814 7.84086 8.75346L8.8755 8.02233C9.03089 7.91252 9.21536 7.85962 9.40123 7.87156L11.8314 8.02768L13.863 6.59202C14.0184 6.48221 14.2029 6.42931 14.3888 6.44125L15.6566 6.52269C16.2005 6.55764 16.4725 6.57511 16.6075 6.36569C16.7426 6.15628 16.6328 5.92986 16.4132 5.47702C15.3213 3.22491 12.8794 2.00589 10.495 2.68968Z" stroke="#534FEB" stroke-linecap="round" stroke-linejoin="round"/>
<path d="M12.0833 7.91669L13.75 14.1667M10.2381 2.50002L10 1.66669" stroke="#534FEB" stroke-linecap="round" stroke-linejoin="round"/>
</svg>
