<svg width="20" height="20" viewBox="0 0 20 20" fill="none" xmlns="http://www.w3.org/2000/svg">
<path d="M3.3335 14.9841V8.08963C3.3335 5.06182 3.3335 3.54792 4.30981 2.6073C5.28612 1.66669 6.85747 1.66669 10.0002 1.66669C13.1429 1.66669 14.7142 1.66669 15.6905 2.6073C16.6668 3.54792 16.6668 5.06182 16.6668 8.08963V14.9841C16.6668 16.9056 16.6668 17.8663 16.0228 18.2102C14.7756 18.8762 12.4362 16.6544 11.3252 15.9854C10.6808 15.5974 10.3587 15.4034 10.0002 15.4034C9.64167 15.4034 9.3195 15.5974 8.67517 15.9854C7.56416 16.6544 5.22472 18.8762 3.97754 18.2102C3.3335 17.8663 3.3335 16.9056 3.3335 14.9841Z" stroke="black" stroke-linecap="round" stroke-linejoin="round"/>
</svg>
