<svg width="20" height="20" viewBox="0 0 20 20" fill="none" xmlns="http://www.w3.org/2000/svg">
<path d="M17.0833 14.1072V8.33335C17.0833 5.19066 17.0833 3.61931 16.107 2.643C15.1307 1.66669 13.5593 1.66669 10.4166 1.66669H9.58329C6.4406 1.66669 4.86925 1.66669 3.89294 2.643C2.91663 3.61931 2.91663 5.19066 2.91663 8.33335V16.25" stroke="black" stroke-opacity="0.8" stroke-linecap="round"/>
<path d="M17.0833 14.1667H4.99996C3.84937 14.1667 2.91663 15.0994 2.91663 16.25C2.91663 17.4006 3.84937 18.3334 4.99996 18.3334H17.0833" stroke="black" stroke-opacity="0.8" stroke-linecap="round"/>
<path d="M17.0833 18.3334C15.9327 18.3334 15 17.4006 15 16.25C15 15.0994 15.9327 14.1667 17.0833 14.1667" stroke="black" stroke-opacity="0.8" stroke-linecap="round"/>
<path d="M12.5 5.83337L7.5 5.83337" stroke="black" stroke-opacity="0.8" stroke-linecap="round" stroke-linejoin="round"/>
<path d="M10 9.16669L7.5 9.16669" stroke="black" stroke-opacity="0.8" stroke-linecap="round" stroke-linejoin="round"/>
</svg>
