<svg width="20" height="20" viewBox="0 0 20 20" fill="none" xmlns="http://www.w3.org/2000/svg">
<path d="M10 12.5L10 13.75" stroke="#534FEB" stroke-linecap="round" stroke-linejoin="round"/>
<path d="M2.5 9.16663L2.6274 11.5527C2.76428 14.5641 2.83272 16.0698 3.79904 16.9932C4.76536 17.9166 6.27263 17.9166 9.28719 17.9166H10.7128C13.7274 17.9166 15.2346 17.9166 16.201 16.9932C17.1673 16.0698 17.2357 14.5641 17.3726 11.5527L17.5 9.16663" stroke="#534FEB" stroke-linecap="round" stroke-linejoin="round"/>
<path d="M2.37265 8.70255C3.78873 11.3954 6.98266 12.5 10 12.5C13.0173 12.5 16.2113 11.3954 17.6273 8.70255C18.3033 7.41713 17.7915 5 16.1267 5H3.87333C2.20852 5 1.69668 7.41714 2.37265 8.70255Z" stroke="#534FEB"/>
<path d="M13.3332 4.99998L13.2596 4.74243C12.893 3.45906 12.7096 2.81737 12.2732 2.45034C11.8367 2.08331 11.2569 2.08331 10.0974 2.08331H9.90243C8.74289 2.08331 8.16313 2.08331 7.72665 2.45034C7.29017 2.81737 7.10683 3.45906 6.74015 4.74243L6.66656 4.99998" stroke="#534FEB"/>
</svg>
