<svg width="20" height="20" viewBox="0 0 20 20" fill="none" xmlns="http://www.w3.org/2000/svg">
<path d="M15 1.66669V3.33335M5 1.66669V3.33335" stroke="black" stroke-opacity="0.8" stroke-linecap="round" stroke-linejoin="round"/>
<path d="M8.33333 14.1667L8.33332 11.1227C8.33332 10.9629 8.21938 10.8334 8.07882 10.8334H7.5M11.358 14.1667L12.4868 11.1243C12.5396 10.9821 12.4274 10.8334 12.2672 10.8334H10.8333" stroke="black" stroke-opacity="0.8" stroke-linecap="round"/>
<path d="M2.08337 10.2027C2.08337 6.57161 2.08337 4.75607 3.12681 3.62803C4.17024 2.5 5.84962 2.5 9.20837 2.5H10.7917C14.1505 2.5 15.8298 2.5 16.8733 3.62803C17.9167 4.75607 17.9167 6.57161 17.9167 10.2027V10.6306C17.9167 14.2617 17.9167 16.0773 16.8733 17.2053C15.8298 18.3333 14.1505 18.3333 10.7917 18.3333H9.20837C5.84962 18.3333 4.17024 18.3333 3.12681 17.2053C2.08337 16.0773 2.08337 14.2617 2.08337 10.6306V10.2027Z" stroke="black" stroke-opacity="0.8" stroke-linecap="round" stroke-linejoin="round"/>
<path d="M5 6.66669H15" stroke="black" stroke-opacity="0.8" stroke-linecap="round" stroke-linejoin="round"/>
</svg>
