<svg width="34" height="16" viewBox="0 0 34 16" fill="none" xmlns="http://www.w3.org/2000/svg">
<path d="M11.25 8.75H10.25V7.25H11.25C11.7445 7.25 12.2278 7.10338 12.6389 6.82867C13.05 6.55397 13.3705 6.16352 13.5597 5.70671C13.7489 5.24989 13.7984 4.74723 13.702 4.26228C13.6055 3.77732 13.3674 3.33187 13.0178 2.98223C12.6681 2.6326 12.2227 2.3945 11.7377 2.29804C11.2528 2.20157 10.7501 2.25108 10.2933 2.4403C9.83648 2.62952 9.44603 2.94995 9.17133 3.36108C8.89662 3.7722 8.75 4.25555 8.75 4.75V5.75H7.25V4.75C7.25 4.25555 7.10338 3.7722 6.82867 3.36108C6.55397 2.94995 6.16352 2.62952 5.70671 2.4403C5.24989 2.25108 4.74723 2.20157 4.26228 2.29804C3.77732 2.3945 3.33187 2.6326 2.98223 2.98223C2.6326 3.33187 2.3945 3.77732 2.29804 4.26228C2.20157 4.74723 2.25108 5.24989 2.4403 5.70671C2.62952 6.16352 2.94995 6.55397 3.36108 6.82867C3.7722 7.10338 4.25555 7.25 4.75 7.25H5.75V8.75H4.75C4.25555 8.75 3.7722 8.89662 3.36108 9.17133C2.94995 9.44603 2.62952 9.83648 2.4403 10.2933C2.25108 10.7501 2.20157 11.2528 2.29804 11.7377C2.3945 12.2227 2.6326 12.6681 2.98223 13.0178C3.33187 13.3674 3.77732 13.6055 4.26228 13.702C4.74723 13.7984 5.24989 13.7489 5.70671 13.5597C6.16352 13.3705 6.55397 13.05 6.82867 12.6389C7.10338 12.2278 7.25 11.7445 7.25 11.25V10.25H8.75V11.25C8.75 11.7445 8.89662 12.2278 9.17133 12.6389C9.44603 13.05 9.83648 13.3705 10.2933 13.5597C10.7501 13.7489 11.2528 13.7984 11.7377 13.702C12.2227 13.6055 12.6681 13.3674 13.0178 13.0178C13.3674 12.6681 13.6055 12.2227 13.702 11.7377C13.7984 11.2528 13.7489 10.7501 13.5597 10.2933C13.3705 9.83648 13.05 9.44603 12.6389 9.17133C12.2278 8.89662 11.7445 8.75 11.25 8.75ZM10.25 4.75C10.25 4.55222 10.3087 4.35888 10.4185 4.19443C10.5284 4.02998 10.6846 3.90181 10.8673 3.82612C11.05 3.75043 11.2511 3.73063 11.4451 3.76922C11.6391 3.8078 11.8173 3.90304 11.9571 4.04289C12.097 4.18275 12.1922 4.36093 12.2308 4.55491C12.2694 4.74889 12.2496 4.94996 12.1739 5.13268C12.0982 5.31541 11.97 5.47159 11.8056 5.58147C11.6411 5.69135 11.4478 5.75 11.25 5.75H10.25V4.75ZM3.75 4.75C3.75 4.48478 3.85536 4.23043 4.04289 4.04289C4.23043 3.85536 4.48478 3.75 4.75 3.75C5.01522 3.75 5.26957 3.85536 5.45711 4.04289C5.64464 4.23043 5.75 4.48478 5.75 4.75V5.75H4.75C4.48478 5.75 4.23043 5.64464 4.04289 5.45711C3.85536 5.26957 3.75 5.01522 3.75 4.75ZM5.75 11.25C5.75 11.4478 5.69135 11.6411 5.58147 11.8056C5.47159 11.97 5.31541 12.0982 5.13268 12.1739C4.94996 12.2496 4.74889 12.2694 4.55491 12.2308C4.36093 12.1922 4.18275 12.097 4.04289 11.9571C3.90304 11.8173 3.8078 11.6391 3.76922 11.4451C3.73063 11.2511 3.75043 11.05 3.82612 10.8673C3.90181 10.6846 4.02998 10.5284 4.19443 10.4185C4.35888 10.3087 4.55222 10.25 4.75 10.25H5.75V11.25ZM7.25 7.25H8.75V8.75H7.25V7.25ZM11.25 12.25C10.9848 12.25 10.7304 12.1446 10.5429 11.9571C10.3554 11.7696 10.25 11.5152 10.25 11.25V10.25H11.25C11.5152 10.25 11.7696 10.3554 11.9571 10.5429C12.1446 10.7304 12.25 10.9848 12.25 11.25C12.25 11.5152 12.1446 11.7696 11.9571 11.9571C11.7696 12.1446 11.5152 12.25 11.25 12.25Z" fill="black" fill-opacity="0.6"/>
<path fill-rule="evenodd" clip-rule="evenodd" d="M24.0001 7.72399V3.99999C24.0001 3.82318 23.9298 3.65361 23.8048 3.52859C23.6798 3.40356 23.5102 3.33333 23.3334 3.33333C23.1566 3.33333 22.987 3.40356 22.862 3.52859C22.737 3.65361 22.6667 3.82318 22.6667 3.99999V12C22.6667 12.1768 22.737 12.3464 22.862 12.4714C22.987 12.5964 23.1566 12.6667 23.3334 12.6667C23.5102 12.6667 23.6798 12.5964 23.8048 12.4714C23.9298 12.3464 24.0001 12.1768 24.0001 12V9.60933L24.6667 8.94266L28.1954 12.4713C28.2569 12.535 28.3305 12.5858 28.4118 12.6207C28.4931 12.6557 28.5806 12.6741 28.6691 12.6748C28.7577 12.6756 28.8455 12.6587 28.9274 12.6252C29.0093 12.5917 29.0837 12.5422 29.1463 12.4796C29.2089 12.417 29.2584 12.3426 29.292 12.2606C29.3255 12.1787 29.3424 12.0909 29.3416 12.0024C29.3408 11.9139 29.3224 11.8264 29.2875 11.7451C29.2525 11.6637 29.2018 11.5902 29.1381 11.5287L25.6094 7.99999L29.1381 4.47133C29.2018 4.40983 29.2525 4.33627 29.2875 4.25493C29.3224 4.17359 29.3408 4.08611 29.3416 3.99759C29.3424 3.90907 29.3255 3.82129 29.292 3.73936C29.2584 3.65743 29.2089 3.58299 29.1463 3.5204C29.0837 3.4578 29.0093 3.4083 28.9274 3.37478C28.8455 3.34126 28.7577 3.32439 28.6691 3.32516C28.5806 3.32593 28.4931 3.34432 28.4118 3.37926C28.3305 3.4142 28.2569 3.46499 28.1954 3.52866L24.0001 7.72399Z" fill="black" fill-opacity="0.6"/>
</svg>
