<svg width="20" height="18" viewBox="0 0 20 18" fill="none" xmlns="http://www.w3.org/2000/svg">
<path d="M14.5647 6.50922C14.571 6.50919 14.5772 6.50917 14.5834 6.50917C16.6545 6.50917 18.3334 8.19118 18.3334 10.2661C18.3334 12.1998 16.8751 13.7924 15.0001 14M14.5647 6.50922C14.5771 6.37172 14.5834 6.23247 14.5834 6.09174C14.5834 3.55579 12.5314 1.5 10.0001 1.5C7.60278 1.5 5.63535 3.34389 5.43377 5.69326M14.5647 6.50922C14.4795 7.45632 14.1073 8.3205 13.5358 9.01376M5.43377 5.69326C3.32007 5.89477 1.66675 7.67827 1.66675 9.84862C1.66675 11.8681 3.09821 13.5527 5.00008 13.9394M5.43377 5.69326C5.5653 5.68072 5.69861 5.67431 5.83341 5.67431C6.7716 5.67431 7.63737 5.98495 8.33382 6.50917" stroke="black" stroke-opacity="0.6" stroke-width="1.5" stroke-linecap="round" stroke-linejoin="round"/>
<path d="M10.0001 9.83331L10.0001 16.5M10.0001 9.83331C9.41656 9.83331 8.32636 11.4952 7.91675 11.9166M10.0001 9.83331C10.5836 9.83331 11.6738 11.4952 12.0834 11.9166" stroke="black" stroke-opacity="0.6" stroke-width="1.5" stroke-linecap="round" stroke-linejoin="round"/>
</svg>
