<svg width="96" height="24" viewBox="0 0 96 24" fill="none" xmlns="http://www.w3.org/2000/svg">
<circle cx="11.9998" cy="12.0001" r="8.33333" stroke="black" stroke-opacity="0.8" stroke-linecap="round" stroke-linejoin="round"/>
<path d="M8.6665 14.5C9.42661 15.512 10.6368 16.1667 11.9998 16.1667C13.3629 16.1667 14.5731 15.512 15.3332 14.5" stroke="black" stroke-opacity="0.8" stroke-linecap="round" stroke-linejoin="round"/>
<path d="M8.67398 9.5L8.6665 9.5M15.3332 9.5L15.3257 9.5" stroke="black" stroke-opacity="0.8" stroke-linecap="round" stroke-linejoin="round"/>
<path d="M48.1668 7.83329V11.1666C48.1668 13.4678 46.3013 15.3333 44.0002 15.3333C41.699 15.3333 39.8335 13.4678 39.8335 11.1666V7.83329C39.8335 5.53211 41.699 3.66663 44.0002 3.66663C46.3013 3.66663 48.1668 5.53211 48.1668 7.83329Z" stroke="black" stroke-opacity="0.8"/>
<path d="M50.6668 11.1666C50.6668 14.8485 47.6821 17.8333 44.0002 17.8333M44.0002 17.8333C40.3183 17.8333 37.3335 14.8485 37.3335 11.1666M44.0002 17.8333V20.3333M44.0002 20.3333H46.5002M44.0002 20.3333H41.5002" stroke="black" stroke-opacity="0.8" stroke-linecap="round"/>
<path d="M91.5399 4.54415C89.7249 2.58951 76.0722 7.3777 76.0835 9.12588C76.0963 11.1083 81.4152 11.7181 82.8895 12.1318C83.7761 12.3805 84.0135 12.6354 84.2179 13.5651C85.1438 17.7754 85.6086 19.8696 86.668 19.9164C88.3566 19.991 93.3113 6.45171 91.5399 4.54415Z" stroke="black" stroke-opacity="0.6"/>
<path d="M83.5835 12.4167L86.5002 9.5" stroke="black" stroke-opacity="0.6" stroke-linecap="round" stroke-linejoin="round"/>
</svg>
