<svg width="18" height="16" viewBox="0 0 18 16" fill="none" xmlns="http://www.w3.org/2000/svg">
<path d="M3.31668 10.747C2.2687 11.3613 -0.47903 12.6155 1.19452 14.185C2.01204 14.9517 2.92255 15.5 4.06727 15.5H10.5993C11.744 15.5 12.6545 14.9517 13.4721 14.185C15.1456 12.6155 12.3979 11.3613 11.3499 10.747C8.89241 9.30658 5.77417 9.30658 3.31668 10.747Z" stroke="black" stroke-opacity="0.8" stroke-linecap="round" stroke-linejoin="round"/>
<path d="M10.6667 3.83333C10.6667 5.67428 9.17428 7.16667 7.33333 7.16667C5.49238 7.16667 4 5.67428 4 3.83333C4 1.99238 5.49238 0.5 7.33333 0.5C9.17428 0.5 10.6667 1.99238 10.6667 3.83333Z" stroke="black" stroke-opacity="0.8"/>
<path d="M15.25 1.33331V5.49998M17.3333 3.41665L13.1666 3.41665" stroke="black" stroke-opacity="0.8" stroke-linecap="round" stroke-linejoin="round"/>
</svg>
