<svg width="16" height="18" viewBox="0 0 16 18" fill="none" xmlns="http://www.w3.org/2000/svg">
<path d="M15.0833 13.1072V7.33335C15.0833 4.19066 15.0833 2.61931 14.107 1.643C13.1307 0.666687 11.5593 0.666687 8.41663 0.666687H7.58329C4.4406 0.666687 2.86925 0.666687 1.89294 1.643C0.916626 2.61931 0.916626 4.19066 0.916626 7.33335V15.25" stroke="black" stroke-opacity="0.8" stroke-linecap="round"/>
<path d="M15.0833 13.1667H2.99996C1.84937 13.1667 0.916626 14.0994 0.916626 15.25C0.916626 16.4006 1.84937 17.3334 2.99996 17.3334H15.0833" stroke="black" stroke-opacity="0.8" stroke-linecap="round"/>
<path d="M15.0833 17.3334C13.9327 17.3334 13 16.4006 13 15.25C13 14.0994 13.9327 13.1667 15.0833 13.1667" stroke="black" stroke-opacity="0.8" stroke-linecap="round"/>
<path d="M10.5 4.83337L5.5 4.83337" stroke="black" stroke-opacity="0.8" stroke-linecap="round" stroke-linejoin="round"/>
<path d="M8 8.16669L5.5 8.16669" stroke="black" stroke-opacity="0.8" stroke-linecap="round" stroke-linejoin="round"/>
</svg>
