<svg width="40" height="40" viewBox="0 0 40 40" fill="none" xmlns="http://www.w3.org/2000/svg">
<path d="M10.5299 23.394C10.3173 24.7471 11.268 25.6862 12.4321 26.1542C16.8948 27.9486 23.1052 27.9486 27.5679 26.1542C28.732 25.6862 29.6827 24.7471 29.4701 23.394C29.3394 22.5625 28.6932 21.8701 28.2144 21.194C27.5873 20.2975 27.525 19.3197 27.5249 18.2794C27.5249 14.2591 24.1559 11 20 11C15.8441 11 12.4751 14.2591 12.4751 18.2794C12.475 19.3197 12.4127 20.2975 11.7856 21.194C11.3068 21.8701 10.6606 22.5625 10.5299 23.394Z" stroke="black" stroke-linecap="round" stroke-linejoin="round"/>
<path d="M17 30C17.7961 30.6219 18.8475 31 20 31C21.1525 31 22.2039 30.6219 23 30" stroke="black" stroke-linecap="round" stroke-linejoin="round"/>
<circle cx="27" cy="11" r="4.5" fill="#534FEB" stroke="white"/>
</svg>
