<svg width="40" height="40" viewBox="0 0 40 40" fill="none" xmlns="http://www.w3.org/2000/svg">
<path d="M37.8 20C39.015 20 40.0125 20.988 39.8792 22.1957C39.42 26.3535 37.6652 30.2835 34.8349 33.4136C31.5105 37.0903 26.9392 39.4015 22.0075 39.899C17.0758 40.3965 12.135 39.045 8.14319 36.1064C4.1514 33.1678 1.39305 28.8516 0.403005 23.9947C-0.587041 19.1378 0.26176 14.0863 2.78482 9.81975C5.30788 5.55316 9.32542 2.3755 14.0584 0.902947C18.7914 -0.56961 23.9026 -0.23214 28.4009 1.84992C32.2305 3.62249 35.3836 6.552 37.4336 10.1984C38.029 11.2575 37.4978 12.5571 36.3798 13.0327C35.2617 13.5083 33.9825 12.9767 33.3545 11.9366C31.7545 9.2866 29.392 7.15711 26.5527 5.84294C23.044 4.21893 19.0573 3.9557 15.3656 5.1043C11.6738 6.25289 8.54015 8.73146 6.57216 12.0594C4.60417 15.3873 3.94211 19.3275 4.71434 23.1159C5.48658 26.9043 7.63809 30.2709 10.7517 32.563C13.8653 34.8551 17.7191 35.9093 21.5658 35.5212C25.4126 35.1331 28.9782 33.3304 31.5712 30.4626C33.6696 28.1419 35.0101 25.2576 35.4452 22.1928C35.6159 20.9898 36.585 20 37.8 20Z" fill="#534FEB"/>
<path d="M20 9.32C20 8.59098 19.4072 7.99249 18.6826 8.07252C16.8784 8.2718 15.1368 8.87858 13.5924 9.85395C11.6746 11.0651 10.1394 12.7949 9.16464 14.843C8.18989 16.891 7.81553 19.1733 8.08496 21.4255C8.30195 23.2392 8.92932 24.9734 9.91246 26.4994C10.3073 27.1122 11.1456 27.1948 11.7114 26.7351C12.2772 26.2753 12.3539 25.4478 11.9782 24.823C11.2994 23.6939 10.8639 22.4298 10.7063 21.1119C10.4961 19.3552 10.7881 17.575 11.5484 15.9775C12.3087 14.38 13.5062 13.0308 15.002 12.0861C16.1243 11.3773 17.38 10.9181 18.6844 10.7329C19.4061 10.6304 20 10.049 20 9.32Z" fill="#534FEB"/>
<path d="M25.748 15.7982C26.1403 15.5114 26.2292 14.9569 25.9011 14.5984C25.084 13.7058 24.0722 13.0072 22.9397 12.5597C21.5333 12.004 19.9983 11.8583 18.5126 12.1395C17.0269 12.4206 15.6512 13.1171 14.5451 14.1481C13.6544 14.9785 12.9678 15.9984 12.5333 17.1279C12.3588 17.5815 12.6442 18.0652 13.1142 18.1888C13.5842 18.3124 14.0598 18.0282 14.2483 17.5802C14.5889 16.7706 15.0979 16.0389 15.7452 15.4355C16.6079 14.6313 17.6809 14.0881 18.8398 13.8688C19.9987 13.6495 21.196 13.7632 22.2929 14.1966C23.1159 14.5217 23.8571 15.0169 24.4699 15.646C24.8091 15.9941 25.3556 16.085 25.748 15.7982Z" fill="#534FEB"/>
</svg>
