<svg width="20" height="20" viewBox="0 0 20 20" fill="none" xmlns="http://www.w3.org/2000/svg">
<path d="M12.0834 10.0001C12.0834 11.1507 11.1507 12.0834 10.0001 12.0834C8.84949 12.0834 7.91675 11.1507 7.91675 10.0001C7.91675 8.84949 8.84949 7.91675 10.0001 7.91675C11.1507 7.91675 12.0834 8.84949 12.0834 10.0001Z" stroke="#534FEB"/>
<path d="M15.8334 9.28467C15.5625 9.24544 15.2843 9.21553 15.0001 9.19566M5.00008 10.8045C4.71589 10.7846 4.43768 10.7547 4.16675 10.7155" stroke="#534FEB" stroke-linecap="round" stroke-linejoin="round"/>
<path d="M10.0001 16.25C8.88963 16.7687 7.43097 17.0834 5.83341 17.0834C4.94515 17.0834 4.09982 16.9861 3.33341 16.8105C2.08306 16.5241 1.66675 15.772 1.66675 14.4884V5.51166C1.66675 4.69097 2.53344 4.12729 3.33341 4.31052C4.09982 4.48606 4.94515 4.58335 5.83341 4.58335C7.43097 4.58335 8.88963 4.26866 10.0001 3.75002C11.1105 3.23138 12.5692 2.91669 14.1667 2.91669C15.055 2.91669 15.9003 3.01398 16.6667 3.18952C17.9849 3.49142 18.3334 4.26699 18.3334 5.51166V14.4884C18.3334 15.3091 17.4667 15.8727 16.6667 15.6895C15.9003 15.514 15.055 15.4167 14.1667 15.4167C12.5692 15.4167 11.1105 15.7314 10.0001 16.25Z" stroke="#534FEB"/>
</svg>
