<svg width="20" height="20" viewBox="0 0 20 20" fill="none" xmlns="http://www.w3.org/2000/svg">
<path d="M13.3333 18.3333C12.445 17.296 11.278 16.6666 9.99999 16.6666C8.72194 16.6666 7.55502 17.296 6.66666 18.3333" stroke="#534FEB" stroke-linecap="round"/>
<path d="M10 10.8333C8.94324 10.8333 7.82592 11.0161 6.95003 11.2607C6.2905 11.4448 5.75997 12.2846 5.84167 12.9663C5.87194 13.2189 6.08943 13.3333 6.31811 13.3333H13.6819C13.9106 13.3333 14.1281 13.2189 14.1583 12.9663C14.2401 12.2846 13.7095 11.4448 13.05 11.2607C12.1741 11.0161 11.0568 10.8333 10 10.8333Z" stroke="#534FEB" stroke-linecap="round"/>
<path d="M17.5 8.33331C16.5795 8.33331 15.8333 9.07951 15.8333 9.99998V10.8333C15.8333 11.7538 15.0871 12.5 14.1667 12.5" stroke="#534FEB" stroke-linecap="round" stroke-linejoin="round"/>
<path d="M2.50001 8.33331C3.42048 8.33331 4.16668 9.07951 4.16668 9.99998V10.8333C4.16668 11.7538 4.91287 12.5 5.83334 12.5" stroke="#534FEB" stroke-linecap="round" stroke-linejoin="round"/>
<path d="M10 13.3333V18.3333" stroke="#534FEB" stroke-linecap="round" stroke-linejoin="round"/>
<path d="M10.6831 8.33329H9.31689C8.14844 8.33329 7.56421 8.33329 7.14158 7.9803C6.71894 7.62731 6.57724 7.02101 6.29385 5.80841C5.84828 3.90186 5.62549 2.94859 6.09334 2.30761C6.56118 1.66663 7.47975 1.66663 9.31689 1.66663H10.6831C12.5203 1.66663 13.4388 1.66663 13.9067 2.30761C14.3745 2.94859 14.1517 3.90186 13.7062 5.80841C13.4228 7.02101 13.2811 7.62731 12.8584 7.9803C12.4358 8.33329 11.8516 8.33329 10.6831 8.33329Z" stroke="#534FEB" stroke-linecap="round" stroke-linejoin="round"/>
<path d="M10 8.33331V10.8333" stroke="#534FEB" stroke-linecap="round" stroke-linejoin="round"/>
</svg>
