<svg width="19" height="16" viewBox="0 0 19 16" fill="none" xmlns="http://www.w3.org/2000/svg">
<path d="M11.1667 13.4167C11.1667 13.4167 12.0001 13.4167 12.8334 15.0834C12.8334 15.0834 15.4805 10.9167 17.8334 10.0834" stroke="#534FEB" stroke-linecap="round" stroke-linejoin="round"/>
<path fill-rule="evenodd" clip-rule="evenodd" d="M4.0835 7.58337H4.07601Z" fill="white"/>
<path d="M4.0835 7.58337H4.07601" stroke="#534FEB" stroke-linecap="round" stroke-linejoin="round"/>
<path d="M8.66675 14.25H8.25008C5.11793 14.25 3.55186 14.25 2.50629 13.4243C2.33906 13.2922 2.18441 13.1467 2.04408 12.9893C1.16675 12.0052 1.16675 10.5313 1.16675 7.58335C1.16675 4.63545 1.16675 3.1615 2.04408 2.17744C2.18441 2.02004 2.33906 1.87448 2.50629 1.74241C3.55186 0.916687 5.11793 0.916687 8.25008 0.916687H10.7501C13.8822 0.916687 15.4483 0.916687 16.4939 1.74241C16.6611 1.87448 16.8158 2.02004 16.9561 2.17744C17.7465 3.06405 17.8248 4.34834 17.8326 6.75002V7.16669" stroke="#534FEB" stroke-linecap="round" stroke-linejoin="round"/>
<path d="M11.5834 7.58333C11.5834 8.73393 10.6507 9.66667 9.50008 9.66667C8.34949 9.66667 7.41675 8.73393 7.41675 7.58333C7.41675 6.43274 8.34949 5.5 9.50008 5.5C10.6507 5.5 11.5834 6.43274 11.5834 7.58333Z" fill="white" stroke="#534FEB"/>
</svg>
