<svg width="18" height="18" viewBox="0 0 18 18" fill="none" xmlns="http://www.w3.org/2000/svg">
<path d="M15.1112 10.6667L15.7972 11.2982C15.9465 11.445 16.0212 11.5184 15.9949 11.5808C15.9686 11.6431 15.863 11.6431 15.6518 11.6431H13.0648C11.7404 11.6431 10.6667 12.6983 10.6667 14C10.6667 14.2934 10.7213 14.5743 10.821 14.8334M12.889 17.3334L12.203 16.7018C12.0537 16.555 11.979 16.4816 12.0053 16.4193C12.0316 16.3569 12.1371 16.3569 12.3483 16.3569H14.9353C16.2598 16.3569 17.3334 15.3017 17.3334 14C17.3334 13.7066 17.2789 13.4258 17.1792 13.1667" stroke="#534FEB" stroke-linecap="round" stroke-linejoin="round"/>
<path d="M17.3262 8.58335C17.3334 8.08274 17.3334 7.94626 17.3334 7.33335C17.3334 4.19066 17.3334 2.61931 16.3571 1.643C15.3808 0.666687 13.8094 0.666687 10.6667 0.666687H7.33341C4.19072 0.666687 2.61937 0.666687 1.64306 1.643C0.666748 2.61931 0.666748 4.19066 0.666748 7.33335C0.666748 10.4761 0.666748 12.0474 1.64306 13.0237C2.61937 14 4.19072 14 7.33341 14H8.16675" stroke="#534FEB" stroke-linecap="round"/>
<path d="M14.4167 7.33337H14.4093" stroke="#534FEB" stroke-linecap="round" stroke-linejoin="round"/>
<path d="M3.5835 7.33337H3.57601" stroke="#534FEB" stroke-linecap="round" stroke-linejoin="round"/>
<path d="M11.0834 7.33333C11.0834 8.48393 10.1507 9.41667 9.00008 9.41667C7.84949 9.41667 6.91675 8.48393 6.91675 7.33333C6.91675 6.18274 7.84949 5.25 9.00008 5.25C10.1507 5.25 11.0834 6.18274 11.0834 7.33333Z" stroke="#534FEB"/>
</svg>
