<svg width="16" height="16" viewBox="0 0 16 16" fill="none" xmlns="http://www.w3.org/2000/svg">
<path d="M2 14L5.33333 10.6667" stroke="black" stroke-opacity="0.6" stroke-linecap="round" stroke-linejoin="round"/>
<path d="M8.83913 12.5809C6.3436 12.0143 3.98579 9.65651 3.41918 7.161C3.32949 6.76596 3.28464 6.56844 3.41457 6.24798C3.54449 5.92752 3.70321 5.82837 4.02063 5.63006C4.7382 5.18177 5.51519 5.03925 6.32155 5.11058C7.45303 5.21065 8.01877 5.26069 8.30099 5.11365C8.58321 4.96661 8.77499 4.62278 9.15855 3.93513L9.64444 3.06402C9.96451 2.49019 10.1246 2.20327 10.501 2.06801C10.8775 1.93275 11.104 2.01466 11.5571 2.17847C12.6168 2.56157 13.4386 3.38336 13.8217 4.44299C13.9855 4.89611 14.0674 5.12267 13.9322 5.49913C13.7969 5.8756 13.51 6.03564 12.9361 6.35572L12.0449 6.85279C11.3586 7.23562 11.0154 7.42704 10.8684 7.71201C10.7214 7.99699 10.7748 8.55041 10.8816 9.65725C10.9601 10.4712 10.8248 11.2533 10.3705 11.9798C10.172 12.2972 10.0727 12.4559 9.75235 12.5857C9.43198 12.7155 9.23436 12.6706 8.83913 12.5809Z" stroke="black" stroke-opacity="0.6" stroke-linecap="round" stroke-linejoin="round"/>
</svg>
