<svg width="56" height="24" viewBox="0 0 56 24" fill="none" xmlns="http://www.w3.org/2000/svg">
<path d="M11.9998 8.66663V15.3333M15.3332 12L8.6665 12" stroke="black" stroke-opacity="0.8" stroke-linecap="round" stroke-linejoin="round"/>
<path d="M20.3332 11.9999C20.3332 7.39755 16.6022 3.66659 11.9998 3.66659C7.39746 3.66659 3.6665 7.39755 3.6665 11.9999C3.6665 16.6023 7.39746 20.3333 11.9998 20.3333C16.6022 20.3333 20.3332 16.6023 20.3332 11.9999Z" stroke="black" stroke-opacity="0.8"/>
<path d="M42.3335 13.0242C42.4515 13.2175 42.5916 13.4004 42.7536 13.5691C43.7599 14.6163 45.2936 14.78 46.4648 14.0602C46.6818 13.9268 46.8864 13.7631 47.0728 13.5691L49.7723 10.7596C50.965 9.51824 50.965 7.50567 49.7723 6.26436C48.5796 5.02304 46.6458 5.02305 45.4531 6.26436L44.8585 6.88319" stroke="black" stroke-opacity="0.8" stroke-linecap="round"/>
<path d="M43.1421 17.1166L42.5473 17.7357C41.3545 18.977 39.4208 18.977 38.228 17.7357C37.0353 16.4944 37.0353 14.4818 38.228 13.2405L40.9276 10.431C42.1203 9.18967 44.0541 9.18967 45.2468 10.431C45.4088 10.5996 45.5488 10.7825 45.6668 10.9757" stroke="black" stroke-opacity="0.8" stroke-linecap="round"/>
</svg>
