<svg width="20" height="20" viewBox="0 0 20 20" fill="none" xmlns="http://www.w3.org/2000/svg">
<path d="M2.08331 10C2.08331 6.26809 2.08331 4.40211 3.24268 3.24274C4.40205 2.08337 6.26803 2.08337 9.99998 2.08337C13.7319 2.08337 15.5979 2.08337 16.7573 3.24274C17.9166 4.40211 17.9166 6.26809 17.9166 10C17.9166 13.732 17.9166 15.598 16.7573 16.7573C15.5979 17.9167 13.7319 17.9167 9.99998 17.9167C6.26803 17.9167 4.40205 17.9167 3.24268 16.7573C2.08331 15.598 2.08331 13.732 2.08331 10Z" stroke="black"/>
<path d="M9.02778 6.66675L7.32425 8.42873C6.60808 9.16947 6.25 9.53984 6.25 10.0001C6.25 10.4603 6.60808 10.8307 7.32425 11.5714L9.02778 13.3334M13.75 6.66675L12.0465 8.42873C11.3303 9.16947 10.9722 9.53984 10.9722 10.0001C10.9722 10.4603 11.3303 10.8307 12.0465 11.5714L13.75 13.3334" stroke="black" stroke-linecap="round" stroke-linejoin="round"/>
</svg>
