<svg width="20" height="20" viewBox="0 0 20 20" fill="none" xmlns="http://www.w3.org/2000/svg">
<path d="M2.08337 10C2.08337 6.26809 2.08337 4.40211 3.24274 3.24274C4.40211 2.08337 6.26809 2.08337 10 2.08337C13.732 2.08337 15.598 2.08337 16.7573 3.24274C17.9167 4.40211 17.9167 6.26809 17.9167 10C17.9167 13.732 17.9167 15.598 16.7573 16.7573C15.598 17.9167 13.732 17.9167 10 17.9167C6.26809 17.9167 4.40211 17.9167 3.24274 16.7573C2.08337 15.598 2.08337 13.732 2.08337 10Z" stroke="black"/>
<path d="M10.9722 6.66675L12.6758 8.42873C13.3919 9.16947 13.75 9.53984 13.75 10.0001C13.75 10.4603 13.3919 10.8307 12.6758 11.5714L10.9722 13.3334M6.25 6.66675L7.95353 8.42873C8.66969 9.16947 9.02778 9.53984 9.02778 10.0001C9.02778 10.4603 8.6697 10.8307 7.95353 11.5714L6.25 13.3334" stroke="black" stroke-linecap="round" stroke-linejoin="round"/>
</svg>
