<svg width="20" height="20" viewBox="0 0 20 20" fill="none" xmlns="http://www.w3.org/2000/svg">
<path d="M17.3116 15C17.936 15 18.4327 14.6071 18.8786 14.0576C19.7915 12.9329 18.2927 12.034 17.721 11.5938C17.1399 11.1463 16.4911 10.8928 15.8332 10.8333M14.9999 9.16667C16.1505 9.16667 17.0832 8.23393 17.0832 7.08333C17.0832 5.93274 16.1505 5 14.9999 5" stroke="black" stroke-opacity="0.8" stroke-linecap="round"/>
<path d="M2.68822 15C2.0638 15 1.56714 14.6071 1.12121 14.0576C0.208326 12.9329 1.70714 12.034 2.27879 11.5938C2.8599 11.1463 3.50874 10.8928 4.16659 10.8333M4.58325 9.16667C3.43266 9.16667 2.49992 8.23393 2.49992 7.08333C2.49992 5.93274 3.43266 5 4.58325 5" stroke="black" stroke-opacity="0.8" stroke-linecap="round"/>
<path d="M6.73642 12.5927C5.88494 13.1192 3.65241 14.1943 5.01217 15.5395C5.6764 16.1967 6.41619 16.6667 7.34627 16.6667H12.6536C13.5837 16.6667 14.3234 16.1967 14.9877 15.5395C16.3474 14.1943 14.1149 13.1192 13.2634 12.5927C11.2667 11.358 8.73313 11.358 6.73642 12.5927Z" stroke="black" stroke-opacity="0.8" stroke-linecap="round" stroke-linejoin="round"/>
<path d="M12.9166 6.25001C12.9166 7.86084 11.6107 9.16668 9.99992 9.16668C8.38909 9.16668 7.08325 7.86084 7.08325 6.25001C7.08325 4.63918 8.38909 3.33334 9.99992 3.33334C11.6107 3.33334 12.9166 4.63918 12.9166 6.25001Z" stroke="black" stroke-opacity="0.8"/>
</svg>
